<svg xmlns="http://www.w3.org/2000/svg" width="27.981" height="28" viewBox="0 0 27.981 28">
  <path id="Caminho_4" data-name="Caminho 4" d="M-1248.259,4198.632l-4.933-4.933a.541.541,0,0,0-.706-.053l-3.546,2.621a1.407,1.407,0,0,1-1.749-.128l-8.06-8.06a1.406,1.406,0,0,1-.128-1.749l2.621-3.546a.543.543,0,0,0-.053-.707l-4.933-4.933a.542.542,0,0,0-.747-.02l-3.438,3.095a6.662,6.662,0,0,0-.765,8.967c.185.293,1.4,2.058,6.868,7.526,5.447,5.447,7.214,6.669,7.516,6.861a6.414,6.414,0,0,0,4.051,1.412,6.626,6.626,0,0,0,4.926-2.169l3.095-3.438A.543.543,0,0,0-1248.259,4198.632Zm-3.882,3.459a5.516,5.516,0,0,1-7.511.621.518.518,0,0,0-.071-.049c-.062-.038-1.6-.975-7.337-6.716s-6.685-7.282-6.72-7.34a.492.492,0,0,0-.048-.071,5.561,5.561,0,0,1,.622-7.508l3.056-2.75,4.238,4.237-2.344,3.171a2.474,2.474,0,0,0,.234,3.161l8.06,8.06a2.473,2.473,0,0,0,3.161.233l3.17-2.342,4.238,4.238Z" transform="translate(1276.081 -4176.986)" fill="#db0064"/>
</svg>
