<svg xmlns="http://www.w3.org/2000/svg" width="31.978" height="32" viewBox="0 0 31.978 32">
  <path id="Caminho_4" data-name="Caminho 4" d="M-1244.284,4201.725l-5.638-5.638a.618.618,0,0,0-.807-.06l-4.053,3a1.608,1.608,0,0,1-2-.146l-9.211-9.211a1.607,1.607,0,0,1-.147-2l3-4.052a.621.621,0,0,0-.06-.808l-5.637-5.637a.619.619,0,0,0-.853-.022l-3.93,3.537a7.613,7.613,0,0,0-.874,10.248c.211.335,1.6,2.352,7.85,8.6,6.225,6.226,8.245,7.622,8.59,7.841a7.329,7.329,0,0,0,4.63,1.613,7.574,7.574,0,0,0,5.63-2.479l3.537-3.93A.62.62,0,0,0-1244.284,4201.725Zm-4.436,3.953a6.3,6.3,0,0,1-8.584.709.6.6,0,0,0-.081-.057c-.071-.043-1.824-1.114-8.385-7.676s-7.64-8.322-7.68-8.388a.6.6,0,0,0-.055-.081,6.355,6.355,0,0,1,.711-8.581l3.493-3.143,4.844,4.843-2.678,3.624a2.828,2.828,0,0,0,.267,3.613l9.211,9.211a2.827,2.827,0,0,0,3.613.267l3.623-2.677,4.844,4.844Z" transform="translate(1276.081 -4176.986)" fill="#fff"/>
</svg>
