<svg xmlns="http://www.w3.org/2000/svg" width="24" height="16" viewBox="0 0 24 16">
  <path id="Caminho_3" data-name="Caminho 3" d="M525.014,3037.217h0a.439.439,0,0,0-.02-.124s0-.01,0-.014,0-.007-.005-.01a.429.429,0,0,0-.056-.109l-.013-.016a.422.422,0,0,0-.078-.078l-.014-.012a.42.42,0,0,0-.107-.054l-.024-.008a.439.439,0,0,0-.125-.02H501.458a.439.439,0,0,0-.125.02l-.025.008a.422.422,0,0,0-.107.054l-.014.012a.424.424,0,0,0-.078.078l-.013.016a.417.417,0,0,0-.056.109s0,.007-.006.01,0,.01,0,.014a.437.437,0,0,0-.02.124h0v14.221a1.333,1.333,0,0,0,1.329,1.333h21.315a1.333,1.333,0,0,0,1.329-1.333v-.712a.44.44,0,0,0,.027-.146Zm-1.806.443-10.194,7.449-10.194-7.449Zm.45,14.222H502.343a.443.443,0,0,1-.44-.445v-13.346l10.849,7.928a.447.447,0,0,0,.525,0l10.822-7.909v13.327A.443.443,0,0,1,523.658,3051.882Z" transform="translate(-501.014 -3036.771)" fill="#666"/>
</svg>
