<svg xmlns="http://www.w3.org/2000/svg" width="33.941" height="33.941" viewBox="0 0 33.941 33.941">
  <g id="Grupo_13" data-name="Grupo 13" transform="translate(360.969 -1382.97) rotate(-45)">
    <path id="Caminho_10" data-name="Caminho 10" d="M-1205.857,761.958h-10.286V751.672a.857.857,0,0,0-.857-.857.857.857,0,0,0-.857.857v10.286h-10.286a.857.857,0,0,0-.857.857.857.857,0,0,0,.857.857h10.286v10.286a.857.857,0,0,0,.857.857.857.857,0,0,0,.857-.857V763.672h10.286a.857.857,0,0,0,.857-.857A.857.857,0,0,0-1205.857,761.958Z" transform="translate(-16.151 -16.151)" fill="#fff"/>
  </g>
</svg>
