<svg xmlns="http://www.w3.org/2000/svg" width="24" height="24" viewBox="0 0 24 24">
  <path id="icone_busca" d="M-1251.568,5527.539a9.964,9.964,0,0,0,2.6-6.708,10.027,10.027,0,0,0-10.016-10.016A10.028,10.028,0,0,0-1269,5520.831a10.028,10.028,0,0,0,10.016,10.016,9.961,9.961,0,0,0,6.708-2.6l6.568,6.568.708-.708Zm-7.416,2.307a9.025,9.025,0,0,1-9.014-9.015,9.025,9.025,0,0,1,9.014-9.014,9.025,9.025,0,0,1,9.014,9.014A9.025,9.025,0,0,1-1258.984,5529.846Z" transform="translate(1269 -5510.815)" fill="#ccc"/>
</svg>
