<svg xmlns="http://www.w3.org/2000/svg" width="20.984" height="27.979" viewBox="0 0 20.984 27.979">
  <g id="Grupo_5" data-name="Grupo 5" transform="translate(294 1646)">
    <path id="Caminho_6" data-name="Caminho 6" d="M-283.508-1646A10.5,10.5,0,0,0-294-1635.508c0,5.72,7.06,17.486,10.492,17.486s10.492-11.766,10.492-17.486A10.5,10.5,0,0,0-283.508-1646Zm0,26.979c-2.681,0-9.493-10.991-9.493-16.487a9.5,9.5,0,0,1,9.493-9.493,9.5,9.5,0,0,1,9.493,9.493C-274.016-1630.012-280.827-1619.021-283.508-1619.021Z" transform="translate(0 0)" fill="#666"/>
    <path id="Caminho_7" data-name="Caminho 7" d="M-248.712-1614a5.525,5.525,0,0,0-5.288,5.725,5.525,5.525,0,0,0,5.288,5.725,5.525,5.525,0,0,0,5.288-5.725A5.525,5.525,0,0,0-248.712-1614Zm0,10.409a4.521,4.521,0,0,1-4.326-4.684,4.521,4.521,0,0,1,4.326-4.684,4.521,4.521,0,0,1,4.326,4.684A4.521,4.521,0,0,1-248.712-1603.591Z" transform="translate(-34.796 -27.837)" fill="#666"/>
  </g>
</svg>
