<svg xmlns="http://www.w3.org/2000/svg" width="32" height="21.333" viewBox="0 0 32 21.333">
  <path id="Caminho_3" data-name="Caminho 3" d="M533.014,3037.365h0a.586.586,0,0,0-.026-.165c0-.006,0-.013,0-.019s-.005-.009-.007-.014a.582.582,0,0,0-.074-.145c-.005-.008-.012-.014-.018-.021a.585.585,0,0,0-.1-.1l-.019-.015a.568.568,0,0,0-.143-.073l-.033-.01a.586.586,0,0,0-.166-.027H501.607a.585.585,0,0,0-.166.027l-.033.01a.568.568,0,0,0-.143.073l-.019.015a.587.587,0,0,0-.1.1c-.006.008-.012.014-.017.021a.564.564,0,0,0-.074.145c0,.005-.006.009-.007.014s0,.013,0,.019a.584.584,0,0,0-.026.165h0v18.961a1.777,1.777,0,0,0,1.772,1.778h28.421a1.777,1.777,0,0,0,1.772-1.778v-.949a.591.591,0,0,0,.036-.2Zm-2.408.591-13.592,9.933-13.592-9.933Zm.6,18.963H502.786a.59.59,0,0,1-.587-.593v-17.8l14.465,10.571a.594.594,0,0,0,.7,0l14.43-10.545v17.77A.59.59,0,0,1,531.207,3056.919Z" transform="translate(-501.014 -3036.771)" fill="#fff"/>
</svg>
