<svg xmlns="http://www.w3.org/2000/svg" width="23.984" height="24" viewBox="0 0 23.984 24">
  <path id="Caminho_4" data-name="Caminho 4" d="M-1252.234,4195.54l-4.228-4.229a.464.464,0,0,0-.605-.045l-3.04,2.247a1.206,1.206,0,0,1-1.5-.11l-6.908-6.908a1.2,1.2,0,0,1-.11-1.5l2.247-3.04a.465.465,0,0,0-.045-.606l-4.228-4.228a.465.465,0,0,0-.64-.017l-2.947,2.653a5.71,5.71,0,0,0-.655,7.686c.158.251,1.2,1.764,5.887,6.451,4.669,4.669,6.184,5.717,6.442,5.881a5.5,5.5,0,0,0,3.472,1.21,5.68,5.68,0,0,0,4.222-1.859l2.652-2.947A.465.465,0,0,0-1252.234,4195.54Zm-3.327,2.965a4.728,4.728,0,0,1-6.438.532.489.489,0,0,0-.061-.042c-.053-.032-1.368-.836-6.289-5.757s-5.73-6.242-5.76-6.292a.446.446,0,0,0-.041-.061,4.766,4.766,0,0,1,.533-6.436l2.62-2.357,3.633,3.632-2.009,2.718a2.121,2.121,0,0,0,.2,2.709l6.908,6.909a2.121,2.121,0,0,0,2.71.2l2.717-2.008,3.633,3.633Z" transform="translate(1276.081 -4176.986)" fill="#666"/>
</svg>
