<svg xmlns="http://www.w3.org/2000/svg" width="28" height="18.667" viewBox="0 0 28 18.667">
  <path id="Caminho_3" data-name="Caminho 3" d="M529.014,3037.291h0a.514.514,0,0,0-.023-.144c0-.006,0-.011,0-.017s0-.008-.006-.012a.507.507,0,0,0-.065-.127l-.015-.019a.509.509,0,0,0-.091-.091c-.006,0-.01-.01-.016-.013a.5.5,0,0,0-.125-.064l-.029-.009a.512.512,0,0,0-.146-.023H501.533a.512.512,0,0,0-.145.023l-.029.009a.5.5,0,0,0-.125.064l-.016.013a.51.51,0,0,0-.091.091l-.015.019a.492.492,0,0,0-.065.127s0,.008-.007.012,0,.011,0,.017a.511.511,0,0,0-.023.144h0v16.591a1.555,1.555,0,0,0,1.55,1.556h24.868a1.555,1.555,0,0,0,1.55-1.556v-.831a.516.516,0,0,0,.031-.171Zm-2.107.517-11.893,8.691-11.893-8.691Zm.526,16.593H502.564a.516.516,0,0,1-.513-.519v-15.571l12.657,9.249a.52.52,0,0,0,.612,0l12.626-9.227v15.549A.516.516,0,0,1,527.432,3054.4Z" transform="translate(-501.014 -3036.771)" fill="#ff8e00"/>
</svg>
